<?xml version="1.0" encoding="utf-8"?>
<!-- Generator: Adobe Illustrator 21.1.0, SVG Export Plug-In . SVG Version: 6.00 Build 0)  -->
<svg version="1.0" id="Calque_1" xmlns="http://www.w3.org/2000/svg" xmlns:xlink="http://www.w3.org/1999/xlink" x="0px" y="0px"
	 viewBox="0 0 115.6 44.2" style="enable-background:new 0 0 115.6 44.2;" xml:space="preserve">
<style type="text/css">
	.st0{fill:#FFFFFF;}
</style>
<g>
	<path class="st0" d="M22.2,0c-3.2,0.1-5.8,0.8-7.4,2.1c-0.7,0.6-1,1.2-1.2,1.4s-0.2,0.3-1,0.3c-2.6,0-4.1,0.8-4.9,1.8
		C7.4,6,7.2,6.4,7.1,6.7H3.9H3.8C2.4,6.9,1.4,7.5,0.9,8.1C0.3,8.7,0.1,9.3,0.1,9.3c-0.2,0.5,0.1,1,0.6,1.2c0,0-0.1,0-0.1,0.1
		c-0.5,0.6-0.6,1.3-0.5,2c0.1,1.2,0.6,2.3,0.6,2.3c0.2,0.4,0.7,0.7,1.2,0.5c0,0,1.5-0.5,2.9-0.6c0.7-0.1,1.4,0,1.7,0.1
		s0.4,0.1,0.4,0.5s-0.1,0.5-0.5,0.7s-1.1,0.4-1.8,0.4c-1.4,0.1-2.9-0.1-2.9-0.1c-0.4-0.1-0.9,0.2-1,0.6c-1.6,3.5,0.5,6.6,0.5,6.6
		c0.3,0.4,0.9,0.6,1.3,0.3c0.1-0.1,0.2-0.2,0.3-0.3c1.5-2.3,5.9-2.5,5.9-2.5h2.4c-0.3,0.1-0.5,0.3-0.8,0.4c-2.5,1.3-5.2,2.9-7.1,5.8
		c-3.1,4.6-2.1,9-0.3,12S7.2,44,7.2,44c0.4,0.3,1,0.2,1.3-0.2c0.1-0.1,0.1-0.3,0.2-0.4c0.2-1,1.2-2.1,2.9-3.2c1.7-1.1,4.1-2.1,6.7-3
		c5.1-1.8,10.8-3.2,13.9-4.6c10.8-4.7,12.3-21.3,3-28.5l0,0c0,0-0.1,0-0.1-0.1c-3.6-2.7-7.8-3.8-11.5-4C23.1,0,22.6,0,22.2,0z
		 M23.5,2c1.5,0.1,3.1,0.3,4.7,0.7c-0.3,0-0.7,0-1,0c-2.2,0.1-4,0.6-5.4,1.2c-2.1,0.9-3.3,2.2-3.9,2.8H9.2c0.4-0.5,1.3-1,3.3-1
		c1.1,0,2-0.4,2.4-0.9c0.5-0.5,0.6-0.9,1-1.2C17.1,2.8,20.1,1.9,23.5,2z M27.2,4.6c1.9-0.1,4.2,0.2,6.9,1.1c1,0.8,1.8,1.6,2.5,2.6
		c0.2,0.3,0.4,0.5,0.5,0.8c4.4,7.2,2.2,18.3-5.8,21.7c-0.1,0.1-0.3,0.1-0.4,0.2c3-4,3.7-8.6,3.7-11.8c0-4-1.3-7.3-4-9.4
		c-2.4-1.9-5.7-2.9-10-3.1c0.5-0.4,1.1-0.7,1.9-1.1C23.7,5.1,25.3,4.7,27.2,4.6z M4,8.7h4.7c0,1.1,0.9,1.9,1.9,1.9s1.9-0.9,1.9-1.9
		h5.7c0,0,0,0,0.1,0h0.3c0.8,0,1.3,0.8,0.8,1.5s-1.7,1.4-2.1,1.4c-0.5,0-1,0.4-1,1c0,1.9,0,3.8-0.5,4.9c-0.1,0.2-0.2,0.5-0.4,0.7
		c-0.1,0.1-0.1,0.2-0.2,0.2c-0.5,0.6-1.3,0.9-2.8,0.9H8.6c0,0-3.8,0-6.4,2.3c-0.3-0.8-0.5-1.8-0.1-3.2c0.6,0.1,1.2,0.2,2.4,0.1
		c0.9-0.1,1.7-0.2,2.5-0.6s1.5-1.3,1.5-2.4s-0.8-1.9-1.6-2.3c-0.8-0.3-1.7-0.3-2.6-0.3c-1.2,0.1-1.8,0.3-2.4,0.5
		c-0.1-0.3-0.2-0.5-0.2-0.8s0.1-0.6,0.1-0.7c0.1-0.1,0.2-0.2,0.8-0.3c0.5,0,0.9-0.4,0.9-1v-1c0-0.3-0.1-0.6-0.4-0.8
		C3.7,8.8,3.7,8.7,4,8.7z M21.3,8.7c3.6,0.2,6.3,1.1,8.2,2.6c2.2,1.7,3.2,4.2,3.2,7.9s-0.9,9.1-5.7,13.1l0,0
		c-1.8,0.6-3.7,1.1-5.8,1.8c-0.2-2.9,1.1-4.9,2.6-7c1.8-2.3,4-4.6,4-7.9c0-4.6-1.9-7.3-3.8-8.8c-1-0.8-2-1.2-2.8-1.5
		C21.3,8.9,21.3,8.8,21.3,8.7z M21.2,10.9c0.5,0.2,1.1,0.5,1.8,1c1.5,1.2,3,3.2,3,7.3c0,2.4-1.7,4.3-3.6,6.7c-1.7,2.2-3.4,5-3,8.8
		c-0.6,0.2-1.2,0.4-1.8,0.6c-1.7,0.6-3.3,1.3-4.8,2c-0.2-0.3-0.6-0.7-0.9-1.6c-0.5-1.3-0.7-3.1,0.5-5.5c0.7-1.4,1.9-2.6,3.2-3.7
		c1.3-1,2.6-1.9,3.4-2.8c3-3.5,3.4-6.8,2.8-9.1c-0.3-1.3-0.8-2.2-1.3-2.9c0.1-0.2,0.3-0.3,0.4-0.5C21,11.1,21.1,11,21.2,10.9z
		 M19.1,12.9c0.3,0.5,0.7,1.2,0.9,2.1c0.4,1.8,0.3,4.3-2.4,7.4c-0.5,0.6-1.8,1.5-3.2,2.6c-1.4,1.1-2.8,2.5-3.7,4.3
		c-1.4,2.9-1.2,5.3-0.6,7c0.3,0.8,0.7,1.4,1,1.8c-0.2,0.1-0.4,0.2-0.5,0.3c-1.4,0.9-2.4,2-3.1,3.2c-0.8-0.6-1.9-1.7-3-3.5
		c-1.6-2.6-2.5-5.9,0.2-9.9c1.6-2.4,4-3.9,6.4-5.1c2.4-1.3,4.8-2.3,6.1-4.3l0,0c0.2-0.3,0.3-0.5,0.5-0.8c0.6-1.5,0.7-3.3,0.7-5
		C18.5,13.1,18.8,13,19.1,12.9z"/>
	<g>
		<path class="st0" d="M59.4,8.8v9.3h10.8V8.8h2.3v20.8h-2.3v-9.7H59.4v9.7h-2.3V8.8H59.4z"/>
		<path class="st0" d="M89.9,14.1v15.6H89c-0.4,0-0.7-0.1-0.9-0.2c-0.2-0.1-0.3-0.4-0.3-0.8v-0.8c-0.7,0.5-1.6,0.9-2.6,1.3
			s-1.9,0.5-2.8,0.5c-1.3,0-2.3-0.3-2.9-0.8c-0.7-0.5-1.1-1.3-1.3-2.2c-0.2-0.9-0.3-2.1-0.3-3.6v-9h2.3v9.1c0,1.3,0.1,2.3,0.3,2.9
			c0.2,0.7,0.5,1.1,1,1.3c0.4,0.2,1.1,0.4,1.9,0.4c0.7,0,1.5-0.1,2.3-0.4c0.8-0.3,1.5-0.6,2-1V14.1H89.9z"/>
		<path class="st0" d="M97.1,14.1l0,2.4c0.7-0.6,1.7-1.2,2.7-1.7c1.1-0.5,2.1-0.8,3.2-0.8c1.1,0,2,0.2,2.6,0.6s1.1,1,1.4,1.9
			s0.4,2.1,0.4,3.6v9.5h-2.3v-9.5c0-1.1-0.1-1.9-0.3-2.5c-0.2-0.6-0.5-1.1-1-1.3s-1.2-0.4-2-0.4c-0.7,0-1.5,0.2-2.3,0.6
			C98.7,17,98,17.5,97.3,18v11.6H95V14.1H97.1z"/>
		<path class="st0" d="M112.7,8.2c0.2-0.3,0.4-0.5,0.6-0.6c0.3-0.2,0.5-0.2,0.8-0.2c0.5,0,0.8,0.1,1.1,0.4c0.3,0.3,0.4,0.7,0.4,1.1
			c0,0.3-0.1,0.7-0.2,0.9c-0.2,0.3-0.4,0.5-0.6,0.6c-0.3,0.1-0.5,0.2-0.8,0.2c-0.4,0-0.8-0.1-1-0.4c-0.3-0.3-0.4-0.7-0.4-1.1
			C112.4,8.8,112.5,8.5,112.7,8.2z M115.2,14.1v15.6h-2.3V14.1H115.2z"/>
	</g>
</g>
</svg>
