<?xml version="1.0" encoding="utf-8"?>
<!-- Generator: Adobe Illustrator 21.1.0, SVG Export Plug-In . SVG Version: 6.00 Build 0)  -->
<svg version="1.1" id="Calque_1" xmlns="http://www.w3.org/2000/svg" xmlns:xlink="http://www.w3.org/1999/xlink" x="0px" y="0px"
	 viewBox="0 0 48 48" style="enable-background:new 0 0 48 48;" xml:space="preserve">
<path d="M26,1.9c-3.2,0.1-5.8,0.8-7.4,2.1c-0.7,0.6-1,1.2-1.2,1.4s-0.2,0.3-1,0.3c-2.6,0-4.1,0.8-4.9,1.8c-0.3,0.4-0.5,0.8-0.6,1.1
	H7.7c0,0-0.1,0-0.1,0C6.2,8.8,5.2,9.4,4.7,10c-0.6,0.6-0.8,1.2-0.8,1.2c-0.2,0.5,0.1,1,0.6,1.2c0,0-0.1,0-0.1,0.1
	c-0.5,0.6-0.6,1.3-0.5,2c0.1,1.2,0.6,2.3,0.6,2.3c0.2,0.4,0.7,0.7,1.2,0.5c0,0,1.5-0.5,2.9-0.6c0.7-0.1,1.4,0,1.7,0.1
	s0.4,0.1,0.4,0.5c0,0.4-0.1,0.5-0.5,0.7c-0.4,0.2-1.1,0.4-1.8,0.4c-1.4,0.1-2.9-0.1-2.9-0.1c-0.4-0.1-0.9,0.2-1,0.6
	C2.9,22.4,5,25.5,5,25.5c0.3,0.4,0.9,0.6,1.3,0.3c0.1-0.1,0.2-0.2,0.3-0.3c1.5-2.3,5.9-2.5,5.9-2.5h2.4c-0.3,0.1-0.5,0.3-0.8,0.4
	c-2.5,1.3-5.2,2.9-7.1,5.8c-3.1,4.6-2.1,9-0.3,12s4.3,4.7,4.3,4.7c0.4,0.3,1,0.2,1.3-0.2c0.1-0.1,0.1-0.3,0.2-0.4
	c0.2-1,1.2-2.1,2.9-3.2c1.7-1.1,4.1-2.1,6.7-3c5.1-1.8,10.8-3.2,13.9-4.6C46.8,29.8,48.3,13.2,39,6c0,0,0,0,0,0c0,0-0.1,0-0.1-0.1
	c-3.6-2.7-7.8-3.8-11.5-4C26.9,1.9,26.4,1.9,26,1.9z M27.3,3.9c1.5,0.1,3.1,0.3,4.7,0.7c-0.3,0-0.7,0-1,0c-2.2,0.1-4,0.6-5.4,1.2
	c-2.1,0.9-3.3,2.2-3.9,2.8H13c0.4-0.5,1.3-1,3.3-1c1.1,0,2-0.4,2.4-0.9c0.5-0.5,0.6-0.9,1-1.2C20.9,4.7,23.9,3.8,27.3,3.9z M31,6.5
	c1.9-0.1,4.2,0.2,6.9,1.1c1,0.8,1.8,1.6,2.5,2.6c0.2,0.3,0.4,0.5,0.5,0.8c4.4,7.2,2.2,18.3-5.8,21.7c-0.1,0.1-0.3,0.1-0.4,0.2
	c3-4,3.7-8.6,3.7-11.8c0-4-1.3-7.3-4-9.4c-2.4-1.9-5.7-2.9-10-3.1c0.5-0.4,1.1-0.7,1.9-1.1C27.5,7,29.1,6.6,31,6.5z M7.8,10.6h4.7
	c0,1.1,0.9,1.9,1.9,1.9s1.9-0.9,1.9-1.9h5.7c0,0,0,0,0.1,0h0.3c0.8,0,1.3,0.8,0.8,1.5c-0.5,0.7-1.7,1.4-2.1,1.4c-0.5,0-1,0.4-1,1
	c0,1.9,0,3.8-0.5,4.9c-0.1,0.2-0.2,0.5-0.4,0.7c-0.1,0.1-0.1,0.2-0.2,0.2c-0.5,0.6-1.3,0.9-2.8,0.9h-3.8c0,0-3.8,0-6.4,2.3
	c-0.3-0.8-0.5-1.8-0.1-3.2c0.6,0.1,1.2,0.2,2.4,0.1c0.9-0.1,1.7-0.2,2.5-0.6c0.8-0.4,1.5-1.3,1.5-2.4c0-1.1-0.8-1.9-1.6-2.3
	c-0.8-0.3-1.7-0.3-2.6-0.3c-1.2,0.1-1.8,0.3-2.4,0.5c-0.1-0.3-0.2-0.5-0.2-0.8c0-0.3,0.1-0.6,0.1-0.7c0.1-0.1,0.2-0.2,0.8-0.3
	c0.5,0,0.9-0.4,0.9-1v-1c0-0.3-0.1-0.6-0.4-0.8C7.5,10.7,7.5,10.6,7.8,10.6z M25.1,10.6c3.6,0.2,6.3,1.1,8.2,2.6
	c2.2,1.7,3.2,4.2,3.2,7.9c0,3.7-0.9,9.1-5.7,13.1c0,0,0,0,0,0C29,34.8,27.1,35.3,25,36c-0.2-2.9,1.1-4.9,2.6-7c1.8-2.3,4-4.6,4-7.9
	c0-4.6-1.9-7.3-3.8-8.8c-1-0.8-2-1.2-2.8-1.5C25.1,10.8,25.1,10.7,25.1,10.6z M25,12.8c0.5,0.2,1.1,0.5,1.8,1c1.5,1.2,3,3.2,3,7.3
	c0,2.4-1.7,4.3-3.6,6.7c-1.7,2.2-3.4,5-3,8.8c-0.6,0.2-1.2,0.4-1.8,0.6c-1.7,0.6-3.3,1.3-4.8,2c-0.2-0.3-0.6-0.7-0.9-1.6
	c-0.5-1.3-0.7-3.1,0.5-5.5c0.7-1.4,1.9-2.6,3.2-3.7c1.3-1,2.6-1.9,3.4-2.8c3-3.5,3.4-6.8,2.8-9.1c-0.3-1.3-0.8-2.2-1.3-2.9
	c0.1-0.2,0.3-0.3,0.4-0.5C24.8,13,24.9,12.9,25,12.8z M22.9,14.8c0.3,0.5,0.7,1.2,0.9,2.1c0.4,1.8,0.3,4.3-2.4,7.4
	c-0.5,0.6-1.8,1.5-3.2,2.6c-1.4,1.1-2.8,2.5-3.7,4.3c-1.4,2.9-1.2,5.3-0.6,7c0.3,0.8,0.7,1.4,1,1.8c-0.2,0.1-0.4,0.2-0.5,0.3
	c-1.4,0.9-2.4,2-3.1,3.2c-0.8-0.6-1.9-1.7-3-3.5c-1.6-2.6-2.5-5.9,0.2-9.9c1.6-2.4,4-3.9,6.4-5.1c2.4-1.3,4.8-2.3,6.1-4.3l0,0
	c0.2-0.3,0.3-0.5,0.5-0.8c0.6-1.5,0.7-3.3,0.7-5C22.3,15,22.6,14.9,22.9,14.8z"/>
</svg>
